<svg xmlns="http://www.w3.org/2000/svg" viewBox="0 0 258.89 259.03" fill="#FFFFFF"><title>Logo jednokolorowe copy (5)</title><g id="Layer_2" data-name="Layer 2"><g id="Logo_jednokolorowe_copy" data-name="Logo jednokolorowe copy"><path d="M258.89,129.57C259.71,196.1,205.42,259.6,128,259A129.52,129.52,0,1,1,258.89,129.57ZM129.39,8.76C62.78,8.76,8.55,63,8.64,129.46A120.77,120.77,0,1,0,129.39,8.76Z"/><path d="M129.48,248.32c-65.64.14-119.77-53.67-118.76-120.69A118.76,118.76,0,1,1,129.48,248.32ZM191.53,131.2l-6.67-3.45q-30-15.56-60-31.08A2.68,2.68,0,0,1,123.22,94c0-11.28,0-22.56,0-33.83V58.71H107.49V202.33h15.75v-1.47c0-10.76,0-21.52,0-32.27a2.77,2.77,0,0,1,1.59-2.81q29-15,58.07-30.07C185.69,134.26,188.47,132.8,191.53,131.2ZM190,210.5l.35-.29,9.91,6.35a10.48,10.48,0,0,1,.9-.78c1-.72,1.08-1.46.53-2.62-1.93-4.08-3.71-8.23-5.56-12.35-.17-.38-.37-.75-.6-1.19l-2.47,1.2c1.93,3.86,3.8,7.59,5.67,11.31l-.22.19-11.76-7.11-.27.26q1.41,6.18,2.83,12.38l-.21.11-8.55-8.27-2.43,2.22a62.82,62.82,0,0,1,11.65,10.82,1.22,1.22,0,0,0,1,.21,8.06,8.06,0,0,0,1.08-.5c.92-.33,1.15-.83.85-1.81-.89-3-1.66-6-2.47-9C190.09,211.24,190,210.87,190,210.5ZM79.36,218c1-3.12,1.85-6.2.32-9.56-2.91,2.28-5.74,4.36-8.41,6.64a37.1,37.1,0,0,0-3.85,4.25,1.14,1.14,0,0,0-.17,1,14.13,14.13,0,0,0,1.39,1.71c2.18-3.8,5.5-6.09,9-8.55.08,4.24-2.11,7.48-3.46,11l3,1.43c2.13-3,3.71-6.34,7.26-8.43-.79,4.14-1.53,8-2.26,11.84,2.3.41,2.68.18,3.06-1.92.5-2.75,1-5.5,1.41-8.27.32-2.11.52-4.24.8-6.5C83.77,213.38,81.44,215.47,79.36,218ZM229.68,75.7c-3.63,2.16-7.65,2.68-12,3.08,2-3.7,5.44-5.54,8.41-7.92-.35-.52-.64-1-.94-1.36-1.08-1.5-.66-1.48-2.49-.61C220.35,70,218,71,215.58,72a5.78,5.78,0,0,1-1.63.19l-.1-.3c2.55-3.06,5.11-6.11,7.72-9.23a16,16,0,0,1-1.39-.92c-.52-.42-.89-.3-1.34.12-4,3.69-6.75,8.37-10,12.81,3.3,1.24,6.31.44,9.34-.62-2.34,2.2-4.38,4.53-4.75,8,5.16-.61,10.14-1.3,14.89-3.08C230.19,78.27,230.44,77.76,229.68,75.7ZM53.44,202.27c-1.07-1.29-2.19-2.53-3.19-3.87s-.73-2.53.88-3.24a5.73,5.73,0,0,1,5.83.43,4.29,4.29,0,0,1,1.46,1.83c.82,2.06-.51,6.66-2.24,8.1a4.61,4.61,0,0,1-1,.63,6.63,6.63,0,0,1-8.42-2.81c-.57-1-1-2.19-1.53-3.25-.16-.3-.72-.73-.85-.65a2.08,2.08,0,0,0-1,1.05,2.86,2.86,0,0,0,.25,1.51,11.37,11.37,0,0,0,5.85,6.53,7.59,7.59,0,0,0,9.24-1.47,10.23,10.23,0,0,0,2.88-7.64A7.18,7.18,0,0,0,57,192.57a7.37,7.37,0,0,0-8.08,1.21,4,4,0,0,0-1.05,5,20.37,20.37,0,0,0,2.47,3.51C51.27,203.41,52.2,203.35,53.44,202.27ZM161.37,33c-2.68-4.18-4.83-8.16-5.68-12.73-.08-.41-.56-1.12-.67-1.09-.83.27-2.12-.55-2.46,1s-.77,3.1-1.15,4.65q-1.23,4.93-2.45,9.88c2.21.34,2.81,0,3.31-2,.1-.38.16-.78.25-1.17.5-2.1,1-4.2,1.58-6.62.3.65.46,1,.6,1.28,1.56,3.59,3.11,7.19,4.69,10.77.15.32.44.75.73.8a3.25,3.25,0,0,0,2.79-1.9q1.77-6.09,3.46-12.22a1,1,0,0,0-.29-.87c-.63-.45-1.35-.79-2.14-1.24C163.09,25.39,162.27,29,161.37,33Zm69.55,146.13c.12-.52.17-.88.28-1.21a1.52,1.52,0,0,0-1-2.15c-2-1-4-2.16-6-3.26l-6.73-3.67c-.86,2.47-.75,2.74,1.36,3.85,1.92,1,3.81,2,5.71,3.06a8,8,0,0,1,.86.64l-13.6,2.14c-.38,2.13.21,3.56,2.25,4.24a10.75,10.75,0,0,1,2,1.11l8,4.81,2.28-2-10.29-5.34C221.1,179.61,225.86,178.6,230.92,179.15ZM127.09,224a3.4,3.4,0,0,0-2.43,3.49c.08,3.84.2,7.67.36,11.51a1.66,1.66,0,0,0,.73,1.19,10.19,10.19,0,0,0,2.2.56c-.33-3.94-.64-7.66-1-11.68,4.1,3.36,7.56,6.87,9.71,11.49.42-.16.68-.28.94-.35,1.25-.28,1.65-1,1.55-2.29-.35-4.51-.54-9-.81-13.53a3.44,3.44,0,0,0-.19-.75c-2.57.84-2.57.84-2.38,3.4.14,1.95.29,3.91.42,5.86,0,.44,0,.89,0,1.65ZM24.86,110.94c.6-.33.93-.53,1.28-.7,3.47-1.74,6.94-3.46,10.4-5.21.33-.17.77-.56.78-.86a2.67,2.67,0,0,0-2-2.54q-6.12-1.44-12.26-2.83a1.16,1.16,0,0,0-1,.32,20.44,20.44,0,0,0-1.12,2.2l11.89,2c-4.49,2.94-8.73,5.54-13.68,6.5-.07,2.71-.07,2.71,2.31,3.16l12,2.32c.46.08.92.14,1.37.2.36-2,0-2.65-1.78-3.05-.89-.21-1.8-.35-2.7-.52Zm67.61,125.4a1.73,1.73,0,0,0,2.59-.12A8.23,8.23,0,0,1,98.82,234a8.08,8.08,0,0,0,3.91-12.3,28.25,28.25,0,0,0-2.19-2.69,1.47,1.47,0,0,0-1.1-.43,23,23,0,0,0-3.61.82,8,8,0,0,0-3.66,13,20.62,20.62,0,0,0,2,1.87Zm60.8-8.85a8.54,8.54,0,0,0,2.62,6.23,9.4,9.4,0,0,0,6.07,2.2c1.41.11,2.07-1.18,2.95-2,4.47-4.25,2.37-11.57-3.49-13.6-2.53-.87-4-.53-5.72,1.4A8.65,8.65,0,0,0,153.27,227.49ZM136.36,24.81a7.94,7.94,0,0,0-4.7-7.26,4.6,4.6,0,0,0-5.13.21,8.19,8.19,0,0,0-.2,14c3.2,1.92,3.11,2,6.27,0C135.2,30.2,136.24,27.81,136.36,24.81Zm71.9,25.82c-5-.09-9.21,4.11-8.64,8.4.78,6-.23,4.49,4.84,6,4.67,1.43,11.13-4,9.51-9.14-.32-1-.44-2.11-.7-3.16-.08-.31-.29-.75-.54-.83C211,51.4,209.3,50.93,208.26,50.63ZM118.57,34a6.36,6.36,0,0,0,1.55-.53,1.33,1.33,0,0,0,.57-1q-1.2-7.14-2.53-14.27a1.41,1.41,0,0,0-.89-.81,7,7,0,0,0-1.74,0l1.53,7.18-7.5,1.29c-.29-2.47-.57-4.78-.85-7.19l-2.36.63a5.92,5.92,0,0,0,0,.68c.69,4.5,1.38,9,2.1,13.49.38,2.39.41,2.38,2.88,2,0,0,.06,0,.16-.1l-1.45-7.19,7.32-1.23ZM221.32,97c4.5-4.79,9-9.51,13.39-14.22L233.3,81.2c-5.35,3.91-11.4,3-17.21,3.26-.51,2.46-.41,2.62,2,2.5a1.68,1.68,0,0,1,1.81,1c.55,1.1,1.16,2.19,1.79,3.25a1.23,1.23,0,0,1-.27,1.79c-.75.64-1.44,1.35-2.24,2.11ZM144.49,242c1.06.77,1.86.81,2.66-.21a13.63,13.63,0,0,1,2.35-2.39,5.25,5.25,0,0,0,1.94-5.75c-.46-2.26-1.29-3.1-3.58-3.28a15.93,15.93,0,0,1-2.5-.27c-1.77-.44-2.49-1.45-2.36-3.09.11-1.46.58-1.83,2.67-2.06l4.7-.51V222a16.35,16.35,0,0,0-7.69,1,3,3,0,0,0-1.89,3.09,23.26,23.26,0,0,0,.52,3.91,3.59,3.59,0,0,0,3.62,2.93c.91.06,1.83.1,2.75.18a1.7,1.7,0,0,1,1.66,1.72,2.12,2.12,0,0,1-2.48,2.58c-1.39-.08-2.77-.27-4.14-.41-.6,2.05-.41,2.36,1.58,2.68.49.08,1,.18,1.67.31ZM46.84,80.19a2.11,2.11,0,0,0-.3-.14c-6-.48-12.11-1-18.16-1.45-.65,0-1,.17-1.09.77s-.17.93-.28,1.53a7.89,7.89,0,0,1,5.61,2.58C34.79,85.71,36.89,88,39,90.3c.5.55.91,1.19,1.41,1.86l2-1.45a1.27,1.27,0,0,0-.08-.34A3.32,3.32,0,0,0,42,89.9a3.21,3.21,0,0,1-.67-4.31,13,13,0,0,0,.87-2.11,1.34,1.34,0,0,1,1.76-1c.92.18,1.86.24,2.89.36Zm182.3,22.88c2.41,2.24,4.31,2.09,7.09,1.15,2.27-.76,3.11-2.23,2.63-4.55a27.7,27.7,0,0,0-1.15-3.9,1.2,1.2,0,0,0-1.05-.49c-4.58,1.09-9.15,2.23-13.72,3.39a1.22,1.22,0,0,0-.81.68,18.86,18.86,0,0,0-.28,2.44c.66-.19,1.16-.32,1.65-.47,3.79-1.12,7.58-2.27,11.37-3.36,1.43-.41,2.45.59,1.95,2a3.92,3.92,0,0,1-1.39,1.84A4.27,4.27,0,0,1,230,101c-.27-.28-.51-.58-.83-1l-9.08,7.55,1.17,1Zm-88-69.25c.15-1.66.27-3.24.42-4.83.25-2.74.51-5.49.77-8.23A1.74,1.74,0,0,1,143.62,19,1.85,1.85,0,0,1,145.71,20a2.3,2.3,0,0,1,.42,1.33,7.19,7.19,0,0,1-.72,3.18c-.69,1-1.93,1.59-3.09,2.48,1,3,2,6.33,3.14,9.66a1.26,1.26,0,0,0,1,.73c.65-.06.65-.59.51-1.19-.56-2.33-1-4.68-1.62-7a1.56,1.56,0,0,1,.57-1.85,7.69,7.69,0,0,0,2.86-6.67,3,3,0,0,0-2.26-3.05c-1.83-.44-3.74-.57-5.65-.83-.12.69-.2,1.12-.27,1.55-.59,3.91-1.17,7.82-1.77,11.72-.42,2.68-.44,2.68,2.07,3.72C140.89,33.82,140.94,33.81,141.12,33.82ZM35.36,120.11c-.2-.51-.31-.8-.43-1.09-.7-1.54-.7-1.54-2.23-.94l-15.6,6.16c-.35.14-.69.33-1.09.52l.76,2.15a7.9,7.9,0,0,1,6.09-.12c3.63,1.32,7.23,2.69,11,4.09l1.07-2A16,16,0,0,0,33,128a1.7,1.7,0,0,1-1.32-1.75c0-1.19-.17-2.39-.25-3.58A1.5,1.5,0,0,1,32.62,121C33.49,120.71,34.36,120.42,35.36,120.11Zm43-71.58c.07-.45.11-.79.19-1.13.28-1.24-.11-1.86-1.45-2.1-1.92-.35-3.79-1-5.7-1.4-.89-.19-1.06-.59-.92-1.42.32-1.76.51-3.55.83-5.32.13-.71-.07-1-.75-1.18-.5-.1-1-.27-1.62-.46-.35,2.75-.69,5.36-1,8l-.33,0-4.34-7.44a5.3,5.3,0,0,0-.44.4c-1.66,1.95-1.63,1.94-.24,4.06,2.26,3.43,4.48,6.9,6.72,10.34,1.14,1.74,1.75,1.91,3.81,1l-4.36-6.32.26-.34Zm-34,123.69-1.27.66c-3.52,1.81-7,3.66-10.57,5.39a2.54,2.54,0,0,1-2-.05c-.77-.38-.71-1.24-.46-2a4,4,0,0,1,5-2.47,5.69,5.69,0,0,1,1.52.7c.85.65,1.34.35,1.94-.41,1.34-1.73,2.8-3.39,4.2-5.08L45,166.29c-.68-.87-1.16-1-2-.18-2,2-4.16,3.85-6.25,5.77-.15.08-.6-.19-1.08-.31-2.62-.65-4.89.27-7,1.75a2.64,2.64,0,0,0-.71,1.56c-.48,2.65,1.23,4.58,2.23,6.86,4.73-2.16,9.35-4.26,14-6.38a1,1,0,0,0,.45-.72C44.6,173.89,44.47,173.15,44.36,172.22Zm67.69,58.59L107.71,234c-1.8,1.34-1.8,1.34-.53,3.24a2.37,2.37,0,0,0,.27.18l6.33-5,.22.16c-.73,2.82-1.47,5.63-2.25,8.61a14.53,14.53,0,0,0,2.33-.34A1.47,1.47,0,0,0,115,240q1.57-7.07,3-14.17c.3-1.49-.41-2.4-2-2.82l-1.38,7.45-.38.07-4.41-9-2.08,1.94Zm65-185.72c1.3,1,2.44,1.92,3.66,2.73,3.86,2.59,6.63,1.73,8.44-2.58.08-.19.15-.37.21-.56a4,4,0,0,0-1.13-4.58c-.59-.54-1.22-1.05-1.77-1.62a1.88,1.88,0,0,1-.11-2.79,1.89,1.89,0,0,1,2.74-.58,24.77,24.77,0,0,1,2.81,2.71,7.08,7.08,0,0,1,.73,1.27,6.49,6.49,0,0,1,.58-.9c1.19-1.21,1.22-1.45,0-2.61a25.45,25.45,0,0,0-2.67-2.21c-2.24-1.57-4.13-1.3-5.79.74-2.29,2.81-2.27,4.09-.15,6.33a13.63,13.63,0,0,1,2.12,3c.53,1,0,2.11-1,2.92a2,2,0,0,1-2.53-.08c-1.47-1-3-2-4.53-3.07ZM48.46,79.45c.88-1.24,1.75-2.38,2.53-3.57,2.58-3.91,1.95-6.22-2.25-8.37-2.34-1.2-4.15-.82-5.83,1.23-.33.4-.68.78-1,1.16-1.06,1.11-2,1.22-3,.37a2,2,0,0,1-.39-3.06,42.28,42.28,0,0,1,3.25-3.32c-1.32-1.75-1.75-1.81-3.41-.18a10.29,10.29,0,0,0-1,1.16c-2.66,3.51-2,6.26,2,8.23A2.92,2.92,0,0,0,43,72.56c.7-.66,1.31-1.41,2-2,1.43-1.19,3-1.21,4.12-.12s1,1.84-.15,3.61c-.85,1.29-1.71,2.56-2.59,3.87ZM228.24,135c-2.3-.91-2.45-.84-2.85,1.44-.16.95-.3,1.9-.44,2.85-.53,3.57.83,5.35,4.43,5.82a11.71,11.71,0,0,0,1.55.13A4.14,4.14,0,0,0,235.3,142c.25-.79.45-1.61.75-2.39a1.74,1.74,0,0,1,2.11-1.16c1,.17,1.85.67,1.94,1.79a5.19,5.19,0,0,1-.28,2c-.38,1.09-.88,2.13-1.36,3.24.44.18.83.37,1.24.51.73.26,1.35,0,1.53-.7a35.76,35.76,0,0,0,1-5.39,3.35,3.35,0,0,0-1-2.41,6.18,6.18,0,0,0-4.81-1.41,3.27,3.27,0,0,0-2.92,2.45,16,16,0,0,1-1.78,3.5c-.67,1-1.83,1.17-3.11.58a2,2,0,0,1-1.14-2.38C227.74,138.51,228,136.77,228.24,135Zm8.26,22.19-12.12-11.3-2.91,11,2.84,1.22c.51-2.54,1-4.94,1.51-7.57L238,161.06c.69-2.59,1.31-4.93,1.94-7.28.67-2.55.67-2.55-1.92-3.17a3.4,3.4,0,0,0-.46,0Zm3.16-42.29L224.41,109c-.1.17-.17.25-.17.31.41,3.41.81,6.82,1.27,10.23a1,1,0,0,0,.67.6c.78.08,1.56,0,2.44,0-.47-2.57-.92-4.93-1.4-7.51L242.46,118c-.45-3.45-.86-6.64-1.29-9.93l-3.09.27Zm-6.49,58c1-2.44,1.87-4.69,2.71-7a1.07,1.07,0,0,0-.37-.93,26.36,26.36,0,0,0-9.51-3.78c-3.92-.62-5.67.3-7.43,3.84-.86,1.73-.78,2,1.07,2.79,3-4.06,5.21-5,7.56-3-.33.61-.67,1.24-1,1.87l-1.09,2.09,2.13,1.37c.32-.78.61-1.43.87-2.09,1.35-3.41,1.37-3.3,4.71-1.61a2,2,0,0,1,.33.3l-2.1,4.87Zm-14.09,23.89c-2.8-2.35-5.35-4.79-8.21-6.8-3.36-2.36-5.59-2-8.5.94-1.42,1.41-1.42,1.41-.16,2.75a25.66,25.66,0,0,1,4.2-2c1.66-.44,3.06.43,4.22,1.73l-3.39,3.07,1.45,2.06c1.06-1.12,2-2.14,3-3.13.53-.55,1.13-.79,1.8-.24s1.43,1.25,2.21,1.93c-1.41,1.51-2.62,2.82-3.9,4.18l1.62,1.87ZM36.66,191.82a9.15,9.15,0,0,0,1.43-.6c2.73-1.72,5.51-3.38,8.14-5.24,2.46-1.74,2.87-3.45,1.9-6.26-.22-.65-.52-1.27-.68-1.92-.29-1.2-.91-1.58-2-1l-.6.31c1,5.78.66,7-2.22,7.94l-2-4.08-2.32.89c.73,1.31,1.46,2.49,2.07,3.74s.32,1.73-.86,2.29c-.36.17-.76.26-1.11.43-.73.36-1.16.13-1.52-.58-.64-1.27-1.37-2.5-2.1-3.82l-2.27,1ZM57,43.1l2.37,6.6-7.17-2.36-.83,3.07c2,.43,3.9.94,5.83,1.21a5.58,5.58,0,0,1,4,2.47c1.18,1.68,2.55,3.23,3.88,4.89l2.31-2.16c-1.6-1.73-3.21-3.3-4.6-5a9.38,9.38,0,0,1-1.65-3.24c-.57-2-.89-4-1.34-6.19Zm186.3,81.54-1.64-2.6c-1.6,1.07-3.14,2-4.57,3.08a6.74,6.74,0,0,1-5.38,1.35c-1.87-.29-3.77-.34-5.66-.49v3.17c1.93,0,3.77.08,5.59,0a7.87,7.87,0,0,1,5.27,1.57c1.43,1.06,3,1.94,4.62,3l1.45-2.61-6.38-2.87ZM23.56,133.82c0,1.34,0,2.61,0,3.88,0,.71-.11,1-.86,1.07-1.11,0-2.23.16-3.34.27s-1.43-.38-1.31-1.42.13-2.05.2-3.18l-2.63-.21.61,7.12,18.84-1.62c-.7-2.38-.69-2.36-2.83-2.17s-4.28.37-6.36.55c-.11-.17-.18-.24-.19-.31-.07-.75-.13-1.51-.2-2.26C25.37,133.9,25.37,133.9,23.56,133.82Zm148.89,80.51c-1.76.63-3.41,1.21-5,1.83a.66.66,0,0,0-.36.51c.11.81.29,1.6.46,2.52l3.53-1.61c.81,1.79,1.65,3.46,2.28,5.21a2.89,2.89,0,0,1-.33,1.91,18.33,18.33,0,0,1-1.37,2.21c1.38,1.15,2.24.24,3.21-.76.85,2.25,1.65,4.37,2.53,6.67a13.57,13.57,0,0,1,1-1.35,1.89,1.89,0,0,0,.19-2.58c-.63-1.06-1-2.25-1.6-3.35s-1-2.28.21-3.53c-2.15-.51-2.67-2.16-3.23-3.81C173.49,216.93,173,215.69,172.45,214.33ZM24.75,96.4A2.66,2.66,0,0,0,25,96l.39-2c.28-1.37.52-1.52,1.89-1.08l11,3.52c.45.14.9.26,1.36.39.52-3,.46-3.09-2.29-3.8-3.09-.81-6.17-1.67-9.25-2.52-1.05-.29-1.38-.9-1-2,.59-1.68.54-1.69-1.35-2.66l-3.2,9.44ZM102.2,20.05l-9.59,3,.56,2.53L97,24c1.56,4.64,3.09,9.18,4.65,13.83a10,10,0,0,1,1-.7c1.08-.54,1.24-1.21.78-2.38-1.27-3.28-2.37-6.62-3.55-9.93-.31-.88-.4-1.64.75-2C102.36,22.27,102.45,22.08,102.2,20.05Zm96.57,22.1L189.94,53.8a14.21,14.21,0,0,1,1.79.62c.93.46,1.31.07,1.85-.73,1.94-2.93,4-5.76,6.07-8.62a15.9,15.9,0,0,1,1.14-1.22c.74.56,1.33,1.31,2,1.44s1.4-.46,2.35-.82c-2.31-1.84-4.29-3.45-6.31-5s-1.24-1.59-3.2.19c-.08.07-.1.2-.19.4ZM43.77,60.6l2.38-3.3,11.33,8.91c1.07-2.1,1.06-2.09-.62-3.41-3.07-2.42-6.13-4.86-9.3-7.38a15.21,15.21,0,0,0,1.94-1.89c.79-1.07-.48-1.49-.79-2.41L42,58.7ZM176.1,212.27a8,8,0,0,1-.87.68c-1.11.64-1,1.37-.48,2.44,1.94,3.63,3.75,7.32,5.61,11,.35.7.73,1.38,1.14,2.14.3-.19.49-.32.69-.43,1-.55,1.32-1.19.64-2.28s-1.15-2.28-1.72-3.42Zm-53.76,11.11a8.8,8.8,0,0,1-1,.08c-1.25,0-1.78.47-1.88,1.81-.24,3.3-.65,6.58-1,9.88-.17,1.57-.34,3.13-.51,4.76l.86,0c1.13.09,1.74-.28,1.77-1.55s.28-2.62.44-3.93C121.47,230.83,121.89,227.19,122.34,223.38ZM38.13,154.89a9.33,9.33,0,0,1-.53-.9c-.5-1.18-1.19-1.36-2.44-.94-4.21,1.41-8.47,2.66-12.71,4-.4.13-.78.3-1.17.46.78,2.19.79,2.19,2.8,1.59l6.78-2Zm184.51,37.23-13.44-9.7a9.39,9.39,0,0,1-.45,1c-.69,1.12-.29,1.75.75,2.46,3.74,2.52,7.39,5.16,11.08,7.75.31.22.64.41,1,.68ZM53.12,187.18c-1.67-1.84-1.67-1.85-3.52-.44l-10.48,8c-.28.21-.53.45-1,.83,1,.33,1.15,2,2.46,1,4.1-3,8.15-6,12.21-9.07A1.92,1.92,0,0,0,53.12,187.18ZM81.71,46.62a10.35,10.35,0,0,1,.76-.72c1-.74,1-1.46.34-2.56-2.39-3.83-4.64-7.74-7-11.62-.2-.33-.42-.64-.63-.95-1.91,1.31-1.91,1.31-.89,3.09l5.44,9.45C80.39,44.37,81,45.43,81.71,46.62Z"/><path d="M156.74,131.2l-33.25,17.35V113.87Z"/><path d="M101.35,226.24a6.11,6.11,0,0,1-4.87,6,2.24,2.24,0,0,1-1.54-.33,5.46,5.46,0,0,1-1.79-6.12c.78-2.32,3.15-4.31,5.27-4.27a2,2,0,0,1,1.49.77c.7,1.21,1.19,2.53,1.77,3.8Z"/><path d="M164.49,228.71a18.52,18.52,0,0,1-.44,2c-1,3.23-3.93,3.82-6.29,1.3a6.41,6.41,0,0,1,.22-8.78,2,2,0,0,1,2.17-.5A6.31,6.31,0,0,1,164.49,228.71Z"/><path d="M133.56,25.89c-.05,1.35-1.25,3.22-3.47,4.39a1.89,1.89,0,0,1-1.54-.09,6.23,6.23,0,0,1-.35-10.72,2,2,0,0,1,1.76-.1C132.13,20.44,133.59,22.09,133.56,25.89Z"/><path d="M205.42,62.46c-3-.09-3.65-.87-3.17-3.88a6.05,6.05,0,0,1,7.25-5.22,2.34,2.34,0,0,1,1.95,1.85A5.76,5.76,0,0,1,205.42,62.46Z"/><path d="M227.68,86.3l-4.21,4.52-2.15-3.77,6.25-1Z"/><path d="M34,81.33l6.78.76-1.67,4.19L33.88,81.6Z"/><path d="M23.16,124.29,29.62,122l.4,4.48-6.82-1.93Z"/></g></g></svg>